<svg xmlns="http://www.w3.org/2000/svg" xmlns:xlink="http://www.w3.org/1999/xlink" width="500" zoomAndPan="magnify" viewBox="0 0 375 374.999991" height="500" preserveAspectRatio="xMidYMid meet" version="1.0"><defs><g/><clipPath id="e57415c4ad"><path d="M 80.214844 26.871094 L 294.714844 26.871094 L 294.714844 241.371094 L 80.214844 241.371094 Z M 80.214844 26.871094 " clip-rule="nonzero"/></clipPath></defs><g clip-path="url(#e57415c4ad)"><path fill="#3498db" d="M 187.496094 46.375 C 139.019531 46.375 99.71875 85.671875 99.71875 134.148438 C 99.71875 182.625 139.019531 221.921875 187.496094 221.921875 C 235.972656 221.921875 275.269531 182.625 275.269531 134.148438 C 275.269531 85.671875 235.972656 46.375 187.496094 46.375 Z M 80.214844 134.148438 C 80.214844 74.898438 128.246094 26.871094 187.496094 26.871094 C 246.742188 26.871094 294.773438 74.898438 294.773438 134.148438 C 294.773438 193.398438 246.742188 241.429688 187.496094 241.429688 C 128.246094 241.429688 80.214844 193.398438 80.214844 134.148438 Z M 80.214844 134.148438 " fill-opacity="1" fill-rule="evenodd"/></g><path fill="#3498db" d="M 152.390625 109.765625 C 152.390625 93.609375 165.488281 80.507812 181.648438 80.507812 L 211.878906 80.507812 L 211.878906 100.015625 L 181.648438 100.015625 C 176.261719 100.015625 171.894531 104.378906 171.894531 109.765625 L 171.894531 114.644531 C 171.894531 120.03125 176.261719 124.394531 181.648438 124.394531 L 193.351562 124.394531 C 209.507812 124.394531 222.609375 137.496094 222.609375 153.652344 L 222.609375 158.53125 C 222.609375 174.6875 209.507812 187.789062 193.351562 187.789062 L 163.117188 187.789062 L 163.117188 168.28125 L 193.351562 168.28125 C 198.738281 168.28125 203.101562 163.917969 203.101562 158.53125 L 203.101562 153.652344 C 203.101562 148.265625 198.738281 143.902344 193.351562 143.902344 L 181.648438 143.902344 C 165.488281 143.902344 152.390625 130.800781 152.390625 114.644531 Z M 152.390625 109.765625 " fill-opacity="1" fill-rule="evenodd"/><path fill="#3498db" d="M 177.742188 68.804688 L 197.246094 68.804688 L 197.246094 90.261719 L 177.742188 90.261719 Z M 177.742188 68.804688 " fill-opacity="1" fill-rule="evenodd"/><path fill="#3498db" d="M 177.742188 178.035156 L 197.246094 178.035156 L 197.246094 199.492188 L 177.742188 199.492188 Z M 177.742188 178.035156 " fill-opacity="1" fill-rule="evenodd"/><g fill="#3498db" fill-opacity="0.4"><g transform="translate(4.159147, 358.572381)"><g><path d="M 22.46875 0 L 8.453125 0 L 8.453125 -67.1875 L 46.96875 -67.1875 L 46.96875 -55.515625 L 22.46875 -55.515625 L 22.46875 -38.1875 L 45.265625 -38.1875 L 45.265625 -26.5625 L 22.46875 -26.5625 Z M 22.46875 0 "/></g></g></g><g fill="#3498db" fill-opacity="0.4"><g transform="translate(55.804716, 358.572381)"><g><path d="M 39.984375 0 L 37.265625 -6.984375 L 36.90625 -6.984375 C 34.539062 -4.015625 32.109375 -1.953125 29.609375 -0.796875 C 27.117188 0.347656 23.863281 0.921875 19.84375 0.921875 C 14.914062 0.921875 11.035156 -0.484375 8.203125 -3.296875 C 5.367188 -6.117188 3.953125 -10.132812 3.953125 -15.34375 C 3.953125 -20.800781 5.859375 -24.820312 9.671875 -27.40625 C 13.484375 -30 19.234375 -31.429688 26.921875 -31.703125 L 35.84375 -31.984375 L 35.84375 -34.234375 C 35.84375 -39.441406 33.175781 -42.046875 27.84375 -42.046875 C 23.738281 -42.046875 18.914062 -40.804688 13.375 -38.328125 L 8.734375 -47.796875 C 14.640625 -50.890625 21.191406 -52.4375 28.390625 -52.4375 C 35.285156 -52.4375 40.570312 -50.929688 44.25 -47.921875 C 47.925781 -44.921875 49.765625 -40.359375 49.765625 -34.234375 L 49.765625 0 Z M 35.84375 -23.796875 L 30.421875 -23.625 C 26.347656 -23.5 23.3125 -22.757812 21.3125 -21.40625 C 19.320312 -20.0625 18.328125 -18.007812 18.328125 -15.25 C 18.328125 -11.300781 20.597656 -9.328125 25.140625 -9.328125 C 28.378906 -9.328125 30.972656 -10.257812 32.921875 -12.125 C 34.867188 -14 35.84375 -16.484375 35.84375 -19.578125 Z M 35.84375 -23.796875 "/></g></g></g><g fill="#3498db" fill-opacity="0.4"><g transform="translate(112.642422, 358.572381)"><g><path d="M 6.75 -64.65625 C 6.75 -69.21875 9.296875 -71.5 14.390625 -71.5 C 19.472656 -71.5 22.015625 -69.21875 22.015625 -64.65625 C 22.015625 -62.476562 21.378906 -60.785156 20.109375 -59.578125 C 18.835938 -58.367188 16.929688 -57.765625 14.390625 -57.765625 C 9.296875 -57.765625 6.75 -60.0625 6.75 -64.65625 Z M 21.375 0 L 7.359375 0 L 7.359375 -51.375 L 21.375 -51.375 Z M 21.375 0 "/></g></g></g><g fill="#3498db" fill-opacity="0.4"><g transform="translate(141.359945, 358.572381)"><g><path d="M 54.78125 0 L 40.765625 0 L 40.765625 -30 C 40.765625 -33.707031 40.101562 -36.488281 38.78125 -38.34375 C 37.46875 -40.195312 35.367188 -41.125 32.484375 -41.125 C 28.566406 -41.125 25.734375 -39.8125 23.984375 -37.1875 C 22.242188 -34.570312 21.375 -30.234375 21.375 -24.171875 L 21.375 0 L 7.359375 0 L 7.359375 -51.375 L 18.0625 -51.375 L 19.9375 -44.796875 L 20.71875 -44.796875 C 22.28125 -47.285156 24.429688 -49.164062 27.171875 -50.4375 C 29.921875 -51.707031 33.039062 -52.34375 36.53125 -52.34375 C 42.507812 -52.34375 47.046875 -50.722656 50.140625 -47.484375 C 53.234375 -44.253906 54.78125 -39.59375 54.78125 -33.5 Z M 54.78125 0 "/></g></g></g><g fill="#3498db" fill-opacity="0.4"><g transform="translate(203.205972, 358.572381)"><g><path d="M 39.984375 0 L 37.265625 -6.984375 L 36.90625 -6.984375 C 34.539062 -4.015625 32.109375 -1.953125 29.609375 -0.796875 C 27.117188 0.347656 23.863281 0.921875 19.84375 0.921875 C 14.914062 0.921875 11.035156 -0.484375 8.203125 -3.296875 C 5.367188 -6.117188 3.953125 -10.132812 3.953125 -15.34375 C 3.953125 -20.800781 5.859375 -24.820312 9.671875 -27.40625 C 13.484375 -30 19.234375 -31.429688 26.921875 -31.703125 L 35.84375 -31.984375 L 35.84375 -34.234375 C 35.84375 -39.441406 33.175781 -42.046875 27.84375 -42.046875 C 23.738281 -42.046875 18.914062 -40.804688 13.375 -38.328125 L 8.734375 -47.796875 C 14.640625 -50.890625 21.191406 -52.4375 28.390625 -52.4375 C 35.285156 -52.4375 40.570312 -50.929688 44.25 -47.921875 C 47.925781 -44.921875 49.765625 -40.359375 49.765625 -34.234375 L 49.765625 0 Z M 35.84375 -23.796875 L 30.421875 -23.625 C 26.347656 -23.5 23.3125 -22.757812 21.3125 -21.40625 C 19.320312 -20.0625 18.328125 -18.007812 18.328125 -15.25 C 18.328125 -11.300781 20.597656 -9.328125 25.140625 -9.328125 C 28.378906 -9.328125 30.972656 -10.257812 32.921875 -12.125 C 34.867188 -14 35.84375 -16.484375 35.84375 -19.578125 Z M 35.84375 -23.796875 "/></g></g></g><g fill="#3498db" fill-opacity="0.4"><g transform="translate(260.043678, 358.572381)"><g><path d="M 35.5625 0.921875 C 29.53125 0.921875 24.800781 -1.269531 21.375 -5.65625 L 20.625 -5.65625 C 21.125 -1.363281 21.375 1.117188 21.375 1.796875 L 21.375 22.609375 L 7.359375 22.609375 L 7.359375 -51.375 L 18.75 -51.375 L 20.71875 -44.71875 L 21.375 -44.71875 C 24.644531 -49.800781 29.5 -52.34375 35.9375 -52.34375 C 42 -52.34375 46.742188 -50 50.171875 -45.3125 C 53.609375 -40.625 55.328125 -34.113281 55.328125 -25.78125 C 55.328125 -20.289062 54.519531 -15.523438 52.90625 -11.484375 C 51.300781 -7.441406 49.015625 -4.363281 46.046875 -2.25 C 43.078125 -0.132812 39.582031 0.921875 35.5625 0.921875 Z M 31.4375 -41.125 C 27.96875 -41.125 25.4375 -40.054688 23.84375 -37.921875 C 22.25 -35.796875 21.425781 -32.285156 21.375 -27.390625 L 21.375 -25.875 C 21.375 -20.351562 22.191406 -16.398438 23.828125 -14.015625 C 25.460938 -11.628906 28.054688 -10.4375 31.609375 -10.4375 C 37.890625 -10.4375 41.03125 -15.613281 41.03125 -25.96875 C 41.03125 -31.019531 40.253906 -34.804688 38.703125 -37.328125 C 37.160156 -39.859375 34.738281 -41.125 31.4375 -41.125 Z M 31.4375 -41.125 "/></g></g></g><g fill="#3498db" fill-opacity="0.4"><g transform="translate(319.592305, 358.572381)"><g><path d="M 35.5625 0.921875 C 29.53125 0.921875 24.800781 -1.269531 21.375 -5.65625 L 20.625 -5.65625 C 21.125 -1.363281 21.375 1.117188 21.375 1.796875 L 21.375 22.609375 L 7.359375 22.609375 L 7.359375 -51.375 L 18.75 -51.375 L 20.71875 -44.71875 L 21.375 -44.71875 C 24.644531 -49.800781 29.5 -52.34375 35.9375 -52.34375 C 42 -52.34375 46.742188 -50 50.171875 -45.3125 C 53.609375 -40.625 55.328125 -34.113281 55.328125 -25.78125 C 55.328125 -20.289062 54.519531 -15.523438 52.90625 -11.484375 C 51.300781 -7.441406 49.015625 -4.363281 46.046875 -2.25 C 43.078125 -0.132812 39.582031 0.921875 35.5625 0.921875 Z M 31.4375 -41.125 C 27.96875 -41.125 25.4375 -40.054688 23.84375 -37.921875 C 22.25 -35.796875 21.425781 -32.285156 21.375 -27.390625 L 21.375 -25.875 C 21.375 -20.351562 22.191406 -16.398438 23.828125 -14.015625 C 25.460938 -11.628906 28.054688 -10.4375 31.609375 -10.4375 C 37.890625 -10.4375 41.03125 -15.613281 41.03125 -25.96875 C 41.03125 -31.019531 40.253906 -34.804688 38.703125 -37.328125 C 37.160156 -39.859375 34.738281 -41.125 31.4375 -41.125 Z M 31.4375 -41.125 "/></g></g></g><g fill="#3498db" fill-opacity="1"><g transform="translate(0.0000045, 354.413251)"><g><path d="M 22.46875 0 L 8.453125 0 L 8.453125 -67.1875 L 46.96875 -67.1875 L 46.96875 -55.515625 L 22.46875 -55.515625 L 22.46875 -38.1875 L 45.265625 -38.1875 L 45.265625 -26.5625 L 22.46875 -26.5625 Z M 22.46875 0 "/></g></g></g><g fill="#3498db" fill-opacity="1"><g transform="translate(51.645573, 354.413251)"><g><path d="M 39.984375 0 L 37.265625 -6.984375 L 36.90625 -6.984375 C 34.539062 -4.015625 32.109375 -1.953125 29.609375 -0.796875 C 27.117188 0.347656 23.863281 0.921875 19.84375 0.921875 C 14.914062 0.921875 11.035156 -0.484375 8.203125 -3.296875 C 5.367188 -6.117188 3.953125 -10.132812 3.953125 -15.34375 C 3.953125 -20.800781 5.859375 -24.820312 9.671875 -27.40625 C 13.484375 -30 19.234375 -31.429688 26.921875 -31.703125 L 35.84375 -31.984375 L 35.84375 -34.234375 C 35.84375 -39.441406 33.175781 -42.046875 27.84375 -42.046875 C 23.738281 -42.046875 18.914062 -40.804688 13.375 -38.328125 L 8.734375 -47.796875 C 14.640625 -50.890625 21.191406 -52.4375 28.390625 -52.4375 C 35.285156 -52.4375 40.570312 -50.929688 44.25 -47.921875 C 47.925781 -44.921875 49.765625 -40.359375 49.765625 -34.234375 L 49.765625 0 Z M 35.84375 -23.796875 L 30.421875 -23.625 C 26.347656 -23.5 23.3125 -22.757812 21.3125 -21.40625 C 19.320312 -20.0625 18.328125 -18.007812 18.328125 -15.25 C 18.328125 -11.300781 20.597656 -9.328125 25.140625 -9.328125 C 28.378906 -9.328125 30.972656 -10.257812 32.921875 -12.125 C 34.867188 -14 35.84375 -16.484375 35.84375 -19.578125 Z M 35.84375 -23.796875 "/></g></g></g><g fill="#3498db" fill-opacity="1"><g transform="translate(108.48328, 354.413251)"><g><path d="M 6.75 -64.65625 C 6.75 -69.21875 9.296875 -71.5 14.390625 -71.5 C 19.472656 -71.5 22.015625 -69.21875 22.015625 -64.65625 C 22.015625 -62.476562 21.378906 -60.785156 20.109375 -59.578125 C 18.835938 -58.367188 16.929688 -57.765625 14.390625 -57.765625 C 9.296875 -57.765625 6.75 -60.0625 6.75 -64.65625 Z M 21.375 0 L 7.359375 0 L 7.359375 -51.375 L 21.375 -51.375 Z M 21.375 0 "/></g></g></g><g fill="#3498db" fill-opacity="1"><g transform="translate(137.200802, 354.413251)"><g><path d="M 54.78125 0 L 40.765625 0 L 40.765625 -30 C 40.765625 -33.707031 40.101562 -36.488281 38.78125 -38.34375 C 37.46875 -40.195312 35.367188 -41.125 32.484375 -41.125 C 28.566406 -41.125 25.734375 -39.8125 23.984375 -37.1875 C 22.242188 -34.570312 21.375 -30.234375 21.375 -24.171875 L 21.375 0 L 7.359375 0 L 7.359375 -51.375 L 18.0625 -51.375 L 19.9375 -44.796875 L 20.71875 -44.796875 C 22.28125 -47.285156 24.429688 -49.164062 27.171875 -50.4375 C 29.921875 -51.707031 33.039062 -52.34375 36.53125 -52.34375 C 42.507812 -52.34375 47.046875 -50.722656 50.140625 -47.484375 C 53.234375 -44.253906 54.78125 -39.59375 54.78125 -33.5 Z M 54.78125 0 "/></g></g></g><g fill="#3498db" fill-opacity="1"><g transform="translate(199.046829, 354.413251)"><g><path d="M 39.984375 0 L 37.265625 -6.984375 L 36.90625 -6.984375 C 34.539062 -4.015625 32.109375 -1.953125 29.609375 -0.796875 C 27.117188 0.347656 23.863281 0.921875 19.84375 0.921875 C 14.914062 0.921875 11.035156 -0.484375 8.203125 -3.296875 C 5.367188 -6.117188 3.953125 -10.132812 3.953125 -15.34375 C 3.953125 -20.800781 5.859375 -24.820312 9.671875 -27.40625 C 13.484375 -30 19.234375 -31.429688 26.921875 -31.703125 L 35.84375 -31.984375 L 35.84375 -34.234375 C 35.84375 -39.441406 33.175781 -42.046875 27.84375 -42.046875 C 23.738281 -42.046875 18.914062 -40.804688 13.375 -38.328125 L 8.734375 -47.796875 C 14.640625 -50.890625 21.191406 -52.4375 28.390625 -52.4375 C 35.285156 -52.4375 40.570312 -50.929688 44.25 -47.921875 C 47.925781 -44.921875 49.765625 -40.359375 49.765625 -34.234375 L 49.765625 0 Z M 35.84375 -23.796875 L 30.421875 -23.625 C 26.347656 -23.5 23.3125 -22.757812 21.3125 -21.40625 C 19.320312 -20.0625 18.328125 -18.007812 18.328125 -15.25 C 18.328125 -11.300781 20.597656 -9.328125 25.140625 -9.328125 C 28.378906 -9.328125 30.972656 -10.257812 32.921875 -12.125 C 34.867188 -14 35.84375 -16.484375 35.84375 -19.578125 Z M 35.84375 -23.796875 "/></g></g></g><g fill="#3498db" fill-opacity="1"><g transform="translate(255.884535, 354.413251)"><g><path d="M 35.5625 0.921875 C 29.53125 0.921875 24.800781 -1.269531 21.375 -5.65625 L 20.625 -5.65625 C 21.125 -1.363281 21.375 1.117188 21.375 1.796875 L 21.375 22.609375 L 7.359375 22.609375 L 7.359375 -51.375 L 18.75 -51.375 L 20.71875 -44.71875 L 21.375 -44.71875 C 24.644531 -49.800781 29.5 -52.34375 35.9375 -52.34375 C 42 -52.34375 46.742188 -50 50.171875 -45.3125 C 53.609375 -40.625 55.328125 -34.113281 55.328125 -25.78125 C 55.328125 -20.289062 54.519531 -15.523438 52.90625 -11.484375 C 51.300781 -7.441406 49.015625 -4.363281 46.046875 -2.25 C 43.078125 -0.132812 39.582031 0.921875 35.5625 0.921875 Z M 31.4375 -41.125 C 27.96875 -41.125 25.4375 -40.054688 23.84375 -37.921875 C 22.25 -35.796875 21.425781 -32.285156 21.375 -27.390625 L 21.375 -25.875 C 21.375 -20.351562 22.191406 -16.398438 23.828125 -14.015625 C 25.460938 -11.628906 28.054688 -10.4375 31.609375 -10.4375 C 37.890625 -10.4375 41.03125 -15.613281 41.03125 -25.96875 C 41.03125 -31.019531 40.253906 -34.804688 38.703125 -37.328125 C 37.160156 -39.859375 34.738281 -41.125 31.4375 -41.125 Z M 31.4375 -41.125 "/></g></g></g><g fill="#3498db" fill-opacity="1"><g transform="translate(315.433162, 354.413251)"><g><path d="M 35.5625 0.921875 C 29.53125 0.921875 24.800781 -1.269531 21.375 -5.65625 L 20.625 -5.65625 C 21.125 -1.363281 21.375 1.117188 21.375 1.796875 L 21.375 22.609375 L 7.359375 22.609375 L 7.359375 -51.375 L 18.75 -51.375 L 20.71875 -44.71875 L 21.375 -44.71875 C 24.644531 -49.800781 29.5 -52.34375 35.9375 -52.34375 C 42 -52.34375 46.742188 -50 50.171875 -45.3125 C 53.609375 -40.625 55.328125 -34.113281 55.328125 -25.78125 C 55.328125 -20.289062 54.519531 -15.523438 52.90625 -11.484375 C 51.300781 -7.441406 49.015625 -4.363281 46.046875 -2.25 C 43.078125 -0.132812 39.582031 0.921875 35.5625 0.921875 Z M 31.4375 -41.125 C 27.96875 -41.125 25.4375 -40.054688 23.84375 -37.921875 C 22.25 -35.796875 21.425781 -32.285156 21.375 -27.390625 L 21.375 -25.875 C 21.375 -20.351562 22.191406 -16.398438 23.828125 -14.015625 C 25.460938 -11.628906 28.054688 -10.4375 31.609375 -10.4375 C 37.890625 -10.4375 41.03125 -15.613281 41.03125 -25.96875 C 41.03125 -31.019531 40.253906 -34.804688 38.703125 -37.328125 C 37.160156 -39.859375 34.738281 -41.125 31.4375 -41.125 Z M 31.4375 -41.125 "/></g></g></g></svg>